<svg width="1155" height="915" viewBox="0 0 1155 915" fill="none" xmlns="http://www.w3.org/2000/svg">
<path d="M5.5 370H224.5V336H132.5V146H236V112H132.5V34H236V-4.76837e-06H149.5C110.5 -4.76837e-06 92.5 24.5 92.5 59V112H0.500003V146H92.5V336H5.5V370ZM474.805 370H514.805V112H474.805V291C474.805 325 442.805 340.5 410.805 340.5C371.305 340.5 349.805 317.5 349.805 270.5V112H309.805V277.5C309.805 340 345.305 376 399.305 376C441.805 376 461.805 353.5 472.805 328H474.805V370ZM603.609 370H823.609V336H733.609V-4.76837e-06H603.609V34H693.609V336H603.609V370ZM903.414 370H1123.41V336H1033.41V-4.76837e-06H903.414V34H993.414V336H903.414V370ZM137.59 877.718C161.692 877.718 185.111 869.855 207.846 854.128L228.872 882.333C217.077 892.248 202.889 900.197 186.308 906.179C169.726 911.991 153.487 914.897 137.59 914.897C111.094 914.897 88.2735 909.171 69.1282 897.718C50.1538 886.265 35.7094 870.026 25.7949 849C15.8803 827.974 10.9231 803.359 10.9231 775.154C10.9231 747.974 15.9658 723.701 26.0513 702.333C36.1367 680.795 50.7521 663.957 69.8974 651.821C89.0427 639.513 111.778 633.359 138.103 633.359C172.462 633.359 202.547 643.786 228.359 664.641L207.333 693.359C184.085 677.291 160.838 669.256 137.59 669.256C121.692 669.256 107.761 673.188 95.7949 681.051C83.8291 688.915 74.4273 700.795 67.5897 716.692C60.9231 732.59 57.5897 752.077 57.5897 775.154C57.5897 809.684 64.7692 835.41 79.1282 852.333C93.6581 869.256 113.145 877.718 137.59 877.718ZM366.233 675.923C376.66 662.248 389.48 651.735 404.694 644.385C420.079 637.034 435.976 633.359 452.386 633.359C478.198 633.359 497.258 640.197 509.566 653.872C522.045 667.547 528.284 687.205 528.284 712.846V909H485.207V713.872C485.207 697.803 481.446 686.009 473.925 678.487C466.404 670.966 454.609 667.205 438.54 667.205C424.352 667.205 410.762 671.735 397.771 680.795C384.78 689.684 374.267 700.197 366.233 712.333V909H323.156V530.795L366.233 526.18V675.923ZM664.619 789.256C665.303 809.427 669.234 826.265 676.414 839.769C683.593 853.103 692.995 863.017 704.619 869.513C716.243 875.838 729.234 879 743.593 879C756.927 879 769.149 877.034 780.26 873.103C791.542 869.171 803.337 863.017 815.645 854.641L835.901 883.103C823.251 893.017 808.722 900.795 792.311 906.436C776.072 912.077 759.662 914.897 743.081 914.897C717.269 914.897 695.046 909.085 676.414 897.462C657.781 885.838 643.593 869.427 633.85 848.231C624.277 827.034 619.491 802.419 619.491 774.385C619.491 747.205 624.363 722.932 634.106 701.564C643.85 680.197 657.61 663.53 675.388 651.564C693.166 639.427 713.85 633.359 737.439 633.359C760.004 633.359 779.491 638.658 795.901 649.256C812.482 659.855 825.132 675.154 833.85 695.154C842.739 714.983 847.183 738.487 847.183 765.667C847.183 773.53 846.841 781.393 846.157 789.256H664.619ZM737.952 668.744C717.098 668.744 700.089 676.094 686.927 690.795C673.935 705.325 666.585 727.034 664.875 755.923H805.645C805.132 727.547 798.892 705.923 786.927 691.051C774.961 676.179 758.636 668.744 737.952 668.744ZM972.236 789.256C972.92 809.427 976.852 826.265 984.031 839.769C991.211 853.103 1000.61 863.017 1012.24 869.513C1023.86 875.838 1036.85 879 1051.21 879C1064.54 879 1076.77 877.034 1087.88 873.103C1099.16 869.171 1110.95 863.017 1123.26 854.641L1143.52 883.103C1130.87 893.017 1116.34 900.795 1099.93 906.436C1083.69 912.077 1067.28 914.897 1050.7 914.897C1024.89 914.897 1002.66 909.085 984.031 897.462C965.399 885.838 951.211 869.427 941.467 848.231C931.894 827.034 927.108 802.419 927.108 774.385C927.108 747.205 931.98 722.932 941.723 701.564C951.467 680.197 965.228 663.53 983.005 651.564C1000.78 639.427 1021.47 633.359 1045.06 633.359C1067.62 633.359 1087.11 638.658 1103.52 649.256C1120.1 659.855 1132.75 675.154 1141.47 695.154C1150.36 714.983 1154.8 738.487 1154.8 765.667C1154.8 773.53 1154.46 781.393 1153.77 789.256H972.236ZM1045.57 668.744C1024.71 668.744 1007.71 676.094 994.544 690.795C981.552 705.325 974.202 727.034 972.493 755.923H1113.26C1112.75 727.547 1106.51 705.923 1094.54 691.051C1082.58 676.179 1066.25 668.744 1045.57 668.744Z" fill="black"/>
</svg>
