<svg width="28" height="24" viewBox="0 0 28 24" fill="none" xmlns="http://www.w3.org/2000/svg">
<path d="M4.06462 0.781539C4.40103 0.781539 4.71077 0.812308 4.99385 0.873847C5.27692 0.931282 5.55179 1.01744 5.81846 1.13231L5.48615 1.90154C5.0841 1.72103 4.62051 1.63077 4.09538 1.63077C3.18872 1.63077 2.73538 1.98974 2.73538 2.70769V4.02462H4.93231L4.82154 4.83692H2.73538V10H1.70154V4.83692H0.156923V4.02462H1.70154V2.73231C1.70154 2.34256 1.8041 2 2.00923 1.70462C2.21436 1.40923 2.49538 1.18154 2.85231 1.02154C3.20923 0.861539 3.61333 0.781539 4.06462 0.781539ZM8.65358 8.11077C8.65358 8.53333 8.73974 8.84103 8.91204 9.03385C9.08845 9.22256 9.36538 9.31692 9.74281 9.31692C10.0833 9.31692 10.4136 9.21846 10.7336 9.02154C11.0577 8.82462 11.312 8.58051 11.4967 8.28923V3.52H12.5305V10H11.6505L11.5644 9.12615C11.3141 9.44615 11.0023 9.69641 10.629 9.87692C10.2597 10.0533 9.88025 10.1415 9.4905 10.1415C8.87102 10.1415 8.40333 9.97744 8.08743 9.64923C7.77563 9.31692 7.61974 8.84513 7.61974 8.23385V3.52H8.65358V8.11077ZM17.5256 8.4C17.5256 8.70359 17.62 8.92718 17.8087 9.07077C18.0015 9.21026 18.2641 9.28 18.5964 9.28C18.9451 9.28 19.3082 9.2041 19.6856 9.05231L19.9625 9.80923C19.7656 9.90769 19.5359 9.98769 19.2733 10.0492C19.0108 10.1108 18.7277 10.1415 18.4241 10.1415C18.0425 10.1415 17.7041 10.0697 17.4087 9.92615C17.1174 9.78256 16.8918 9.57538 16.7318 9.30462C16.5718 9.03385 16.4918 8.71385 16.4918 8.34462V1.72923H14.5041V0.91077H17.5256V8.4ZM24.9084 8.4C24.9084 8.70359 25.0028 8.92718 25.1915 9.07077C25.3843 9.21026 25.6469 9.28 25.9792 9.28C26.3279 9.28 26.691 9.2041 27.0684 9.05231L27.3454 9.80923C27.1484 9.90769 26.9187 9.98769 26.6561 10.0492C26.3936 10.1108 26.1105 10.1415 25.8069 10.1415C25.4254 10.1415 25.0869 10.0697 24.7915 9.92615C24.5002 9.78256 24.2746 9.57538 24.1146 9.30462C23.9546 9.03385 23.8746 8.71385 23.8746 8.34462V1.72923H21.8869V0.91077H24.9084V8.4ZM3.16615 22.2492C3.74462 22.2492 4.30667 22.0605 4.85231 21.6831L5.35692 22.36C5.07385 22.5979 4.73333 22.7887 4.33538 22.9323C3.93744 23.0718 3.54769 23.1415 3.16615 23.1415C2.53026 23.1415 1.98256 23.0041 1.52308 22.7292C1.06769 22.4544 0.721026 22.0646 0.483077 21.56C0.245128 21.0554 0.126154 20.4646 0.126154 19.7877C0.126154 19.1354 0.247179 18.5528 0.489231 18.04C0.731282 17.5231 1.08205 17.119 1.54154 16.8277C2.00103 16.5323 2.54667 16.3846 3.17846 16.3846C4.00308 16.3846 4.72513 16.6349 5.34462 17.1354L4.84 17.8246C4.28205 17.439 3.7241 17.2462 3.16615 17.2462C2.78462 17.2462 2.45026 17.3405 2.16308 17.5292C1.8759 17.7179 1.65026 18.0031 1.48615 18.3846C1.32615 18.7662 1.24615 19.2338 1.24615 19.7877C1.24615 20.6164 1.41846 21.2338 1.76308 21.64C2.11179 22.0462 2.57949 22.2492 3.16615 22.2492ZM8.65358 17.4062C8.90384 17.0779 9.21153 16.8256 9.57666 16.6492C9.94589 16.4728 10.3274 16.3846 10.7213 16.3846C11.3408 16.3846 11.7982 16.5487 12.0936 16.8769C12.3931 17.2051 12.5428 17.6769 12.5428 18.2923V23H11.509V18.3169C11.509 17.9313 11.4187 17.6482 11.2382 17.4677C11.0577 17.2872 10.7746 17.1969 10.389 17.1969C10.0485 17.1969 9.7223 17.3056 9.4105 17.5231C9.09871 17.7364 8.8464 17.9887 8.65358 18.28V23H7.61974V13.9231L8.65358 13.8123V17.4062ZM15.8149 20.1262C15.8313 20.6103 15.9256 21.0144 16.0979 21.3385C16.2702 21.6585 16.4959 21.8964 16.7749 22.0523C17.0538 22.2041 17.3656 22.28 17.7102 22.28C18.0302 22.28 18.3236 22.2328 18.5902 22.1385C18.861 22.0441 19.1441 21.8964 19.4395 21.6954L19.9256 22.3785C19.622 22.6164 19.2733 22.8031 18.8795 22.9385C18.4897 23.0738 18.0959 23.1415 17.6979 23.1415C17.0784 23.1415 16.5451 23.0021 16.0979 22.7231C15.6508 22.4441 15.3102 22.0503 15.0764 21.5415C14.8467 21.0328 14.7318 20.4421 14.7318 19.7692C14.7318 19.1169 14.8487 18.5344 15.0825 18.0215C15.3164 17.5087 15.6467 17.1087 16.0733 16.8215C16.5 16.5303 16.9964 16.3846 17.5625 16.3846C18.1041 16.3846 18.5718 16.5118 18.9656 16.7662C19.3636 17.0205 19.6672 17.3877 19.8764 17.8677C20.0897 18.3436 20.1964 18.9077 20.1964 19.56C20.1964 19.7487 20.1882 19.9374 20.1718 20.1262H15.8149ZM17.5749 17.2338C17.0743 17.2338 16.6661 17.4103 16.3502 17.7631C16.0384 18.1118 15.862 18.6328 15.821 19.3262H19.1995C19.1872 18.6451 19.0374 18.1262 18.7502 17.7692C18.4631 17.4123 18.0713 17.2338 17.5749 17.2338ZM23.1977 20.1262C23.2141 20.6103 23.3084 21.0144 23.4807 21.3385C23.6531 21.6585 23.8787 21.8964 24.1577 22.0523C24.4366 22.2041 24.7484 22.28 25.0931 22.28C25.4131 22.28 25.7064 22.2328 25.9731 22.1385C26.2438 22.0441 26.5269 21.8964 26.8223 21.6954L27.3084 22.3785C27.0048 22.6164 26.6561 22.8031 26.2623 22.9385C25.8725 23.0738 25.4787 23.1415 25.0807 23.1415C24.4613 23.1415 23.9279 23.0021 23.4807 22.7231C23.0336 22.4441 22.6931 22.0503 22.4592 21.5415C22.2295 21.0328 22.1146 20.4421 22.1146 19.7692C22.1146 19.1169 22.2315 18.5344 22.4654 18.0215C22.6992 17.5087 23.0295 17.1087 23.4561 16.8215C23.8828 16.5303 24.3792 16.3846 24.9454 16.3846C25.4869 16.3846 25.9546 16.5118 26.3484 16.7662C26.7464 17.0205 27.05 17.3877 27.2592 17.8677C27.4725 18.3436 27.5792 18.9077 27.5792 19.56C27.5792 19.7487 27.571 19.9374 27.5546 20.1262H23.1977ZM24.9577 17.2338C24.4572 17.2338 24.049 17.4103 23.7331 17.7631C23.4213 18.1118 23.2448 18.6328 23.2038 19.3262H26.5823C26.57 18.6451 26.4202 18.1262 26.1331 17.7692C25.8459 17.4123 25.4541 17.2338 24.9577 17.2338Z" fill="black"/>
</svg>
