<svg xmlns="http://www.w3.org/2000/svg" xmlns:xlink="http://www.w3.org/1999/xlink" width="32" height="32" version="1.0"><defs><linearGradient id="e"><stop offset="0" stop-color="#333"/><stop offset="1" stop-color="#9f9f9f"/></linearGradient><linearGradient id="a"><stop offset="0" stop-color="#3c3c3c"/><stop offset="1" stop-color="#9e9e9e"/></linearGradient><linearGradient id="d"><stop offset="0"/><stop offset="1" stop-color="#898989"/></linearGradient><linearGradient id="b"><stop offset="0" stop-color="#fff" stop-opacity=".494"/><stop offset="1" stop-color="#fff" stop-opacity=".251"/></linearGradient><linearGradient id="c"><stop offset="0" stop-color="#0084dd"/><stop offset="1" stop-color="#fff"/></linearGradient><linearGradient xlink:href="#a" id="g" gradientUnits="userSpaceOnUse" gradientTransform="matrix(.95454 0 0 .96552 1.705 .552)" x1="15.5" y1="5.95" x2="4" y2="31"/><linearGradient xlink:href="#c" id="h" gradientUnits="userSpaceOnUse" x1="253.747" y1="412.83" x2="188" y2="542.333"/><linearGradient xlink:href="#c" id="i" gradientUnits="userSpaceOnUse" x1="253.747" y1="412.83" x2="188" y2="542.333"/><linearGradient xlink:href="#b" id="j" gradientUnits="userSpaceOnUse" gradientTransform="matrix(.0924 0 0 .0924 -5.658 -25.642)" x1="247" y1="441.862" x2="292" y2="282.362"/><linearGradient xlink:href="#d" id="k" gradientUnits="userSpaceOnUse" gradientTransform="matrix(.95454 0 0 .96552 1.705 .552)" x1="15.5" y1="5.95" x2="4" y2="31"/><linearGradient xlink:href="#c" id="m" gradientUnits="userSpaceOnUse" x1="253.747" y1="412.83" x2="188" y2="542.333"/><linearGradient xlink:href="#b" id="n" gradientUnits="userSpaceOnUse" gradientTransform="matrix(.0924 0 0 .0924 -5.658 -25.642)" x1="247" y1="441.862" x2="292" y2="282.362"/><linearGradient xlink:href="#e" id="o" gradientUnits="userSpaceOnUse" gradientTransform="matrix(.95454 0 0 .96552 1.705 .552)" x1="15.5" y1="5.95" x2="4" y2="31"/><linearGradient xlink:href="#c" id="p" gradientUnits="userSpaceOnUse" x1="253.747" y1="412.83" x2="188" y2="542.333"/><linearGradient xlink:href="#b" id="q" gradientUnits="userSpaceOnUse" gradientTransform="matrix(.0924 0 0 .0924 -5.658 -25.642)" x1="247" y1="441.862" x2="292" y2="282.362"/><linearGradient xlink:href="#d" id="r" gradientUnits="userSpaceOnUse" gradientTransform="matrix(.95454 0 0 .96552 1.705 .552)" x1="15.5" y1="5.95" x2="4" y2="31"/><linearGradient xlink:href="#d" id="s" gradientUnits="userSpaceOnUse" gradientTransform="matrix(.95454 0 0 .96552 1.705 .552)" x1="15.5" y1="5.95" x2="4" y2="31"/><linearGradient xlink:href="#d" id="t" gradientUnits="userSpaceOnUse" gradientTransform="matrix(.95454 0 0 .96552 1.705 .552)" x1="15.5" y1="5.95" x2="4" y2="31"/><linearGradient xlink:href="#d" id="v" gradientUnits="userSpaceOnUse" gradientTransform="matrix(.95454 0 0 .96552 1.705 .552)" x1="17.857" y1="-11.398" x2="4" y2="31"/><clipPath clipPathUnits="userSpaceOnUse" id="f"><rect width="23" height="30" x="5" y="1" ry="4.619" rx="4.619" fill="#d533e4" fill-opacity=".541"/></clipPath><clipPath clipPathUnits="userSpaceOnUse" id="l"><rect width="41" height="28" x="19.88" y="16.849" ry="4" rx="4" fill="none" stroke="#000"/></clipPath><clipPath clipPathUnits="userSpaceOnUse" id="u"><rect rx="4.619" ry="4.619" y="1" x="5" height="30" width="45" fill="#d533e4" fill-opacity=".541"/></clipPath><clipPath clipPathUnits="userSpaceOnUse" id="w"><rect rx="4" ry="4" y="16.849" x="19.88" height="28" width="43" fill="#e51be8" fill-opacity=".536"/></clipPath></defs><g clip-path="url(#f)"><rect ry="0" rx="0" height="32" width="32"/><rect width="21" height="28" x="6" y="2" ry="4" rx="4" fill="url(#g)"/><path d="M23.653 24.88c-2.091 1.616-3.834-3.468-6.477-3.456-2.733.012-4.47 5.055-6.728 3.514-2.183-1.49 2.114-4.718 1.286-7.228-.856-2.595-6.189-2.69-5.422-5.312.743-2.537 5.14.552 7.272-1.011 2.204-1.616.646-6.717 3.377-6.798 2.642-.078 1.063 5.06 3.209 6.604 2.217 1.596 6.587-1.462 7.508 1.11.89 2.489-4.483 2.576-5.289 5.093-.833 2.602 3.426 5.813 1.264 7.484z" fill="none"/><path d="M294.469 523.453c-9.08 8.813-45.575-17.77-58.102-15.978-12.526 1.793-40.1 37.546-51.287 31.633-11.188-5.912 2.816-48.835-2.76-60.195-5.575-11.36-48.099-26.534-45.933-39.002 2.166-12.467 47.316-12.412 56.396-21.225 9.08-8.814 10.373-53.945 22.9-55.738 12.526-1.793 26.425 41.165 37.613 47.077 11.188 5.913 54.51-6.805 60.086 4.555 5.576 11.36-30.983 37.853-33.15 50.32-2.165 12.468 23.317 49.74 14.237 58.553z" transform="matrix(.07508 .00044 -.00044 .07508 -2.368 -12.924)" fill="url(#h)" stroke="#fff" stroke-width="15.984"/><path transform="rotate(-38.853 1.454 -3.187) scale(.04021)" d="M294.469 523.453c-9.08 8.813-45.575-17.77-58.102-15.978-12.526 1.793-40.1 37.546-51.287 31.633-11.188-5.912 2.816-48.835-2.76-60.195-5.575-11.36-48.099-26.534-45.933-39.002 2.166-12.467 47.316-12.412 56.396-21.225 9.08-8.814 10.373-53.945 22.9-55.738 12.526-1.793 26.425 41.165 37.613 47.077 11.188 5.913 54.51-6.805 60.086 4.555 5.576 11.36-30.983 37.853-33.15 50.32-2.165 12.468 23.317 49.74 14.237 58.553z" fill="url(#i)" stroke="#fff" stroke-width="24.87"/><path d="M2.66.45h27.63L29.457 20.4c-3.578-3.881-16.633-9.864-25.843-9.864L2.66.451z" fill="url(#j)"/></g><g clip-path="url(#f)" id="x" transform="translate(32)"><rect width="32" height="32" rx="0" ry="0" fill="#fff" stroke-width="1.2"/><rect rx="4" ry="4" y="2" x="6" height="28" width="21" fill="url(#k)"/><g transform="translate(-13.88 -14.85)" clip-path="url(#l)"><path transform="matrix(.12483 -.02362 .02362 .12483 -4.13 -17.391)" d="M294.469 523.453c-9.08 8.813-45.575-17.77-58.102-15.978-12.526 1.793-40.1 37.546-51.287 31.633-11.188-5.912 2.816-48.835-2.76-60.195-5.575-11.36-48.099-26.534-45.933-39.002 2.166-12.467 47.316-12.412 56.396-21.225 9.08-8.814 10.373-53.945 22.9-55.738 12.526-1.793 26.425 41.165 37.613 47.077 11.188 5.913 54.51-6.805 60.086 4.555 5.576 11.36-30.983 37.853-33.15 50.32-2.165 12.468 23.317 49.74 14.237 58.553z" fill="url(#m)" stroke="#fff" stroke-width="15.984"/></g><path d="M2.66.45h27.63L29.457 20.4c-3.578-3.881-16.633-9.864-25.843-9.864L2.66.451z" fill="url(#n)" stroke-width="3"/></g><g clip-path="url(#f)" transform="translate(-32)"><rect width="32" height="32" rx="0" ry="0"/><rect rx="4" ry="4" y="2" x="6" height="28" width="21" fill="url(#o)"/><path d="M294.469 523.453c-9.08 8.813-45.575-17.77-58.102-15.978-12.526 1.793-40.1 37.546-51.287 31.633-11.188-5.912 2.816-48.835-2.76-60.195-5.575-11.36-48.099-26.534-45.933-39.002 2.166-12.467 47.316-12.412 56.396-21.225 9.08-8.814 10.373-53.945 22.9-55.738 12.526-1.793 26.425 41.165 37.613 47.077 11.188 5.913 54.51-6.805 60.086 4.555 5.576 11.36-30.983 37.853-33.15 50.32-2.165 12.468 23.317 49.74 14.237 58.553z" transform="rotate(7.143 224.714 -8.734) scale(.09241)" fill="url(#p)" stroke="#fff" stroke-width="16.232"/><path d="M2.66.45h27.63L29.457 20.4c-3.578-3.881-16.633-9.864-25.843-9.864L2.66.451z" fill="url(#q)"/></g><g transform="translate(64)" clip-path="url(#f)"><rect ry="0" rx="0" height="32" width="32" fill="#fff"/><rect width="21" height="28" x="6" y="2" ry="4" rx="4" fill="url(#r)"/><g clip-path="url(#l)" transform="translate(-13.88 -14.85)"><text style="text-align:start;line-height:125%" x="24.875" y="41.375" font-size="28" font-weight="400" fill="#fff" font-family="Bitstream Vera Sans"><tspan x="24.875" y="41.375">f</tspan></text></g></g><g clip-path="url(#f)" transform="translate(88)"><rect width="32" height="32" rx="0" ry="0" fill="#fff"/><rect rx="4" ry="4" y="2" x="6" height="28" width="21" fill="url(#s)"/><g transform="translate(-13.88 -14.85)" clip-path="url(#l)"><text y="41.375" x="22.375" style="text-align:start;line-height:125%" font-size="28" font-weight="400" fill="#fff" font-family="Bitstream Vera Sans"><tspan y="41.375" x="22.375">c</tspan></text></g></g><g transform="translate(112)" clip-path="url(#f)"><rect ry="0" rx="0" height="32" width="32" fill="#fff"/><rect width="21" height="28" x="6" y="2" ry="4" rx="4" fill="url(#t)"/><g clip-path="url(#l)" transform="translate(-13.88 -14.85)"><text style="text-align:start;line-height:125%" x="24.875" y="41.375" font-size="28" font-weight="400" fill="#fff" font-family="Bitstream Vera Sans"><tspan x="24.875" y="41.375">!</tspan></text></g></g><g clip-path="url(#u)" transform="translate(64 32)"><rect width="52" height="32" rx="0" ry="0" fill="#fff"/><rect rx="4" ry="4" y="2" x="6" height="28" width="43" fill="url(#v)"/><g transform="translate(-13.88 -14.85)" clip-path="url(#w)"><text y="41.375" x="24.875" style="text-align:start;line-height:125%" font-size="28" font-weight="400" fill="#fff" font-family="Bitstream Vera Sans"><tspan y="41.375" x="24.875">fc!</tspan></text></g></g><use xlink:href="#x" transform="translate(0 32)" width="32" height="32"/><text style="text-align:start;line-height:125%" x="67.174" y="93.49" font-size="36" font-weight="400" fill="#fff" font-family="Bitstream Vera Sans"><tspan x="67.174" y="93.49" style="text-align:start;line-height:125%">fc!</tspan></text><use height="32" width="32" transform="translate(0 64)" xlink:href="#x"/></svg>