<svg xmlns="http://www.w3.org/2000/svg" version="1.0" width="277.109" height="237.419"><path d="M17.945 24.208V207.78h255.714" fill="none" stroke="#000"/><path d="M60.087 207.78V24.922M105.23 207.78V24.922M147.802 207.208V24.351M192.659 207.208V24.351M233.659 207.065V24.208M273.802 207.351V24.494" fill="none" stroke="#969696"/><text x="188.714" y="598.219" font-size="12" font-weight="400" font-family="Bitstream Vera Sans" transform="translate(-132.77 -378.154)"><tspan x="188.714" y="598.219">1</tspan></text><text x="234.571" y="598.362" font-size="12" font-weight="400" font-family="Bitstream Vera Sans" transform="translate(-132.77 -378.154)"><tspan x="234.571" y="598.362">2</tspan></text><text x="277.286" y="598.505" font-size="12" font-weight="400" font-family="Bitstream Vera Sans" transform="translate(-132.77 -378.154)"><tspan x="277.286" y="598.505">3</tspan></text><text x="320.857" y="597.791" font-size="12" font-weight="400" font-family="Bitstream Vera Sans" transform="translate(-132.77 -378.154)"><tspan x="320.857" y="597.791">4</tspan></text><text x="362.857" y="597.076" font-size="12" font-weight="400" font-family="Bitstream Vera Sans" transform="translate(-132.77 -378.154)"><tspan x="362.857" y="597.076">5</tspan></text><text x="402.417" y="596.922" font-size="12" font-weight="400" font-family="Bitstream Vera Sans" transform="translate(-132.77 -378.154)"><tspan x="402.417" y="596.922">6</tspan></text><text x="255.548" y="613.076" font-size="12" font-weight="400" font-family="Bitstream Vera Sans" transform="translate(-132.77 -378.154)"><tspan x="255.548" y="613.076">Time remembered (days)</tspan></text><text x="-450.485" y="141.518" transform="rotate(-90 -255.462 -122.692)" font-size="12" font-weight="400" font-family="Bitstream Vera Sans"><tspan x="-450.485" y="141.518">Memory</tspan></text><text x="195.571" y="388.791" style="text-align:start;line-height:100%" font-size="14" font-weight="700" font-family="Bitstream Vera Sans" transform="translate(-132.77 -378.154)"><tspan x="195.571" y="388.791">The Forgetting Curve</tspan></text><path d="M21.516 26.351c6.516 103.572 88.743 166.892 251.429 177.143" fill="none" stroke="red"/><path d="M60.087 24.922c58.958 63.62 134.25 114.939 212.143 142.143" fill="none" stroke="#007d00"/><path d="M105.81 25.645c48.848 43.362 109.77 67.041 167.126 76.412" fill="none" stroke="#007d00" stroke-width="1.016"/><path d="M147.23 24.208c39.524 9.859 85.477 20.347 125 20.714" fill="none" stroke="#007d00"/></svg>