<?xml version="1.0" encoding="UTF-8"?> <svg xmlns="http://www.w3.org/2000/svg" width="3037" height="578" viewBox="0 0 3037 578" fill="none"><path d="M1032.6 138.913H791.714C790.225 138.913 789 140.138 789 141.628V426.908C789 428.397 790.225 429.622 791.714 429.622H848.883C850.373 429.622 851.597 428.397 851.597 426.908V338.126H980.069C981.559 338.126 982.784 336.901 982.784 335.412V278.243C982.784 276.753 981.559 275.529 980.069 275.529H851.597V201.577H1032.6C1034.09 201.577 1035.32 200.352 1035.32 198.863V141.694C1035.32 140.138 1034.09 138.913 1032.6 138.913Z" fill="#281D47"></path><path d="M1210.9 136C1127.28 136 1059.22 204.026 1059.22 287.677C1059.22 371.295 1127.25 439.354 1210.9 439.354C1294.51 439.354 1362.57 371.328 1362.57 287.677C1362.57 204.026 1294.55 136 1210.9 136ZM1304.05 287.644C1304.05 339.02 1262.27 380.762 1210.93 380.762C1159.55 380.762 1117.81 338.986 1117.81 287.644C1117.81 236.302 1159.59 194.526 1210.93 194.526C1262.27 194.526 1304.05 236.302 1304.05 287.644Z" fill="#281D47"></path><path d="M1640.47 309.491C1657.29 293.006 1666.95 267.484 1666.95 239.446C1666.95 198.663 1647.95 176.021 1639.81 168.176C1611.54 141.031 1572.68 140.634 1565.43 140.932H1433.25C1431.76 140.932 1430.53 142.157 1430.53 143.646V426.874C1430.53 428.364 1431.76 429.589 1433.25 429.589H1486.34C1487.83 429.589 1489.06 428.364 1489.06 426.874V337.927H1560.16L1612.17 428.264C1612.66 429.092 1613.56 429.622 1614.55 429.622H1669.7C1670.69 429.622 1671.59 429.092 1672.08 428.264C1672.58 427.437 1672.58 426.378 1672.08 425.55L1615.21 326.837C1624.85 322.269 1633.35 316.443 1640.47 309.491ZM1598.2 267.815C1590.88 275.528 1580.03 279.434 1565.82 279.434H1489.06V199.524H1565.82C1607.83 199.524 1608.43 237.857 1608.43 239.645C1608.43 239.777 1609.19 256.196 1598.2 267.815Z" fill="#281D47"></path><path d="M2322.39 146.924H2267.54C2266.41 146.924 2265.42 147.586 2264.99 148.645L2154.29 425.915C2153.96 426.742 2154.06 427.702 2154.56 428.464C2155.05 429.225 2155.91 429.655 2156.81 429.655H2211.39C2212.52 429.655 2213.51 428.993 2213.94 427.934L2233.44 379.107H2356.22L2375.72 427.934C2376.11 428.993 2377.14 429.655 2378.27 429.655H2433.05C2433.95 429.655 2434.81 429.225 2435.3 428.464C2435.8 427.735 2435.9 426.775 2435.57 425.915L2324.9 148.645C2324.51 147.586 2323.48 146.924 2322.39 146.924ZM2336.92 330.645H2252.81L2294.85 225.312L2336.92 330.645Z" fill="#281D47"></path><path d="M2082.56 146.924H2027.97C2026.91 146.924 2025.99 147.52 2025.52 148.447L1920.26 364.343L1814.99 148.447C1814.52 147.52 1813.13 146.924 1812.08 146.924H1757.75C1756.26 146.924 1755.04 148.149 1755.04 149.639V426.908C1755.04 428.397 1756.26 429.622 1757.75 429.622H1812.08C1813.56 429.622 1814.79 428.397 1814.79 426.908V272.88L1890.1 427.338C1890.16 427.702 1890.3 428.033 1890.5 428.331C1890.99 429.159 1891.95 429.622 1892.91 429.622H1947.7C1948.66 429.622 1949.42 428.96 1949.92 428.133C1950.11 427.835 1950.21 427.47 1950.25 427.106L2025.46 272.847V426.875C2025.46 428.364 2026.68 429.589 2028.17 429.589H2082.49C2083.98 429.589 2085.21 428.364 2085.21 426.875V149.605C2085.31 148.149 2084.08 146.924 2082.56 146.924Z" fill="#281D47"></path><path d="M2808.73 146.924H2753.88C2752.76 146.924 2751.76 147.586 2751.33 148.645L2640.64 425.915C2640.31 426.742 2640.41 427.702 2640.9 428.464C2641.4 429.225 2642.26 429.655 2643.15 429.655H2697.74C2698.87 429.655 2699.86 428.993 2700.29 427.934L2719.79 379.107H2842.57L2862.06 427.934C2862.46 428.993 2863.49 429.655 2864.61 429.655H2919.4C2920.29 429.655 2921.15 429.225 2921.65 428.464C2922.14 427.735 2922.24 426.775 2921.91 425.915L2811.22 148.645C2810.85 147.586 2809.86 146.924 2808.73 146.924ZM2739.19 330.645L2781.23 225.312L2823.27 330.645H2739.19Z" fill="#281D47"></path><path d="M3030.99 146.924H2976.67C2975.18 146.924 2973.95 148.149 2973.95 149.639V426.908C2973.95 428.397 2975.18 429.622 2976.67 429.622H3030.99C3032.48 429.622 3033.7 428.397 3033.7 426.908V149.639C3033.7 148.149 3032.48 146.924 3030.99 146.924Z" fill="#281D47"></path><path d="M2537.49 445.412C2560.87 445.412 2579.83 426.456 2579.83 403.073C2579.83 379.69 2560.87 360.735 2537.49 360.735C2514.11 360.735 2495.15 379.69 2495.15 403.073C2495.15 426.456 2514.11 445.412 2537.49 445.412Z" fill="#281D47"></path><path d="M354.071 60.0917L250 0L0 144.323V433.028L104.071 493.119V204.415L354.071 60.0917Z" fill="#6B3ECC"></path><path d="M395.929 84.2317L500 144.323V192.603L208.199 361.067V264.507L395.929 156.135V84.2317Z" fill="#6B3ECC"></path><path d="M395.929 252.695V372.878L208.199 481.307V553.211L250.057 577.351L500 432.97V312.787L395.929 252.695Z" fill="#6B3ECC"></path></svg> 